# xmcd
#
# Track frame offsets:
#	150
#	14371
#	28126
#	42695
#	57686
#	69936
#	88389
#	108853
#	125148
#	138479
#	156112
#	170004
#	185949
#	201270
#	217089
#
# Disc length: 3128 seconds
#
# Revision: 1
# Processed by: cddbd v1.5.2PL0 Copyright (c) Steve Scherf et al.
# Submitted via: audiograbber 1.83.01
#
DISCID=f30c360f
DTITLE=CDX - 505
DYEAR=2010
DGENRE=Country
TTITLE0=Laura Bell Bundy - Drop On By
TTITLE1=Josh Kelley - Georgia Clay
TTITLE2=Gretchen Wilson - I Got Your Country Right Here
TTITLE3=Adam Brand - Ready For Love
TTITLE4=Trailer Choir - Shakin' That Tailgate
TTITLE5=Sugarland - Stuck Like Glue
TTITLE6=Phoenix Stone - Proud to Be (Born Again American)
TTITLE7=Ty Herndon - Journey On
TTITLE8=Wayne Warner and Bonnie Tyler - Something Going On
TTITLE9=Emil - All I Ever Knew Of Love Was You
TTITLE10=Mishavonna - Done With Y'all
TTITLE11=Steve Richard - Eighty Acre Church
TTITLE12=Hannah McNeil - I Need A Break
TTITLE13=Jake McVey - Redlined and Wasted
TTITLE14=Kevin Skinner - Like It's The Last Goodbye
EXTD=
EXTT0=
EXTT1=
EXTT2=
EXTT3=
EXTT4=
EXTT5=
EXTT6=
EXTT7=
EXTT8=
EXTT9=
EXTT10=
EXTT11=
EXTT12=
EXTT13=
EXTT14=
PLAYORDER=
